# xmcd
#
# Track frame offsets:
#	150
#	49092
#	73056
#	93337
#	107051
#	111913
#	117157
#	120307
#	122446
#	125057
#	144852
#	152959
#	165070
#	180806
#	190194
#	214288
#
# Disc length: 3104 seconds
#
# Revision: 1
# Processed by: cddbd v1.5.2PL0 Copyright (c) Steve Scherf et al.
# Submitted via: audiograbber 1.83.01
#
DISCID=d30c1e10
DTITLE=Grateful Dead - 69-11-07 Family Dog at the Great Highway, San Francisco 
DTITLE=CA
DYEAR=1900
DGENRE=
TTITLE0=Morning Dew
TTITLE1=Hard To Handle
TTITLE2=Casey Jones
TTITLE3=Mama Tried
TTITLE4=Stage Talk
TTITLE5=The Star Spangled Banner
TTITLE6=Merry Go Round Broke Tuning
TTITLE7=Spring Song Tuning
TTITLE8=Take Me Out To The Ballgame Tuning
TTITLE9=Next Time You See Me
TTITLE10=Good Lovin'
TTITLE11=Drums
TTITLE12=Jam
TTITLE13=Good Lovin'
TTITLE14=China Cat Sunflower
TTITLE15=I Know You Rider
EXTD=
EXTT0=
EXTT1=
EXTT2=
EXTT3=
EXTT4=
EXTT5=
EXTT6=
EXTT7=
EXTT8=
EXTT9=
EXTT10=
EXTT11=
EXTT12=
EXTT13=
EXTT14=
EXTT15=
PLAYORDER=
